<svg width="64" height="64" viewBox="0 0 64 64" fill="none" xmlns="http://www.w3.org/2000/svg">
<path d="M15.3756 53.7739C15.6222 53.7739 15.8586 53.8718 16.033 54.0462C16.2073 54.2205 16.3053 54.457 16.3053 54.7035C16.3053 54.9501 16.2073 55.1866 16.033 55.3609C15.8586 55.5353 15.6222 55.6332 15.3756 55.6332C14.7919 55.6339 14.2324 55.8661 13.8197 56.2788C13.407 56.6915 13.1748 57.2511 13.1741 57.8347C13.1741 58.0813 13.0761 58.3178 12.9018 58.4921C12.7274 58.6665 12.491 58.7644 12.2444 58.7644C11.9978 58.7644 11.7614 58.6665 11.587 58.4921C11.4127 58.3178 11.3147 58.0813 11.3147 57.8347C11.316 56.7581 11.7442 55.7259 12.5055 54.9647C13.2668 54.2034 14.299 53.7751 15.3756 53.7739ZM20.7869 49.4011C21.8746 49.4025 22.9173 49.8353 23.6863 50.6044C24.4554 51.3736 24.8879 52.4163 24.8892 53.504C24.8892 53.7505 24.7913 53.987 24.6169 54.1614C24.4426 54.3357 24.2061 54.4337 23.9595 54.4337C23.713 54.4337 23.4765 54.3357 23.3021 54.1614C23.1278 53.987 23.0298 53.7505 23.0298 53.504C23.0293 52.9092 22.7928 52.339 22.3723 51.9184C21.9518 51.4978 21.3816 51.2612 20.7869 51.2605C20.5403 51.2605 20.3039 51.1626 20.1295 50.9882C19.9552 50.8139 19.8572 50.5774 19.8572 50.3308C19.8572 50.0843 19.9552 49.8478 20.1295 49.6734C20.3039 49.4991 20.5403 49.4011 20.7869 49.4011ZM40.185 39.3594V41.4898C40.185 41.7363 40.087 41.9728 39.9127 42.1471C39.7383 42.3215 39.5018 42.4194 39.2553 42.4194C39.0087 42.4194 38.7722 42.3215 38.5979 42.1471C38.4235 41.9728 38.3256 41.7363 38.3256 41.4898V39.3594C36.5531 39.1323 34.9239 38.2678 33.7422 36.9272C32.5606 35.5867 31.9073 33.8619 31.9044 32.0749C31.9044 31.8284 32.0023 31.5919 32.1767 31.4176C32.351 31.2432 32.5875 31.1453 32.8341 31.1453C33.8729 31.146 34.8997 31.3676 35.8464 31.7952C36.7932 32.2228 37.6382 32.8468 38.3256 33.6257V31.9469C37.0695 30.5498 36.3975 28.7239 36.4481 26.8458C36.4987 24.9677 37.2681 23.1806 38.5976 21.8532C38.772 21.6789 39.0085 21.5811 39.255 21.5811C39.5016 21.5811 39.738 21.6789 39.9124 21.8532C41.2379 23.1828 42.0045 24.9691 42.0552 26.8459C42.1059 28.7226 41.4367 30.5477 40.185 31.9469V33.6257C40.872 32.8465 41.7169 32.2224 42.6636 31.7948C43.6103 31.3671 44.6372 31.1457 45.676 31.1453C45.9225 31.1453 46.159 31.2432 46.3334 31.4176C46.5077 31.5919 46.6057 31.8284 46.6057 32.0749C46.6027 33.8618 45.9495 35.5866 44.768 36.9271C43.5864 38.2676 41.9574 39.1322 40.185 39.3594ZM33.8594 33.1003C34.0666 34.1826 34.5939 35.1778 35.373 35.9572C36.1521 36.7366 37.1472 37.2643 38.2294 37.4719C38.0222 36.3896 37.4949 35.3943 36.7158 34.615C35.9367 33.8356 34.9416 33.3079 33.8594 33.1003ZM39.2542 23.9628C38.635 24.8744 38.3039 25.951 38.3039 27.053C38.3039 28.1551 38.635 29.2317 39.2542 30.1433C39.8733 29.2312 40.2043 28.1542 40.2044 27.0518C40.2045 25.9494 39.8737 24.8724 39.2547 23.9601L39.2542 23.9628ZM40.2806 37.4719C41.3625 37.2643 42.3572 36.7369 43.1362 35.958C43.9151 35.179 44.4425 34.1843 44.6501 33.1024C43.5682 33.31 42.5735 33.8374 41.7946 34.6164C41.0156 35.3953 40.4882 36.39 40.2806 37.4719Z" fill="#163020"/>
<path d="M53.5565 32C53.5566 34.8286 52.7179 37.5938 51.1465 39.9458C49.575 42.2978 47.3414 44.131 44.728 45.2135C42.1147 46.2961 39.2391 46.5793 36.4647 46.0275C33.6904 45.4757 31.142 44.1136 29.1419 42.1134C27.1417 40.1132 25.7796 37.5648 25.2277 34.7905C24.6759 32.0162 24.9592 29.1405 26.0417 26.5272C27.1243 23.9139 28.9574 21.6803 31.3094 20.1088C33.6614 18.5373 36.4266 17.6986 39.2553 17.6987C43.0469 17.7031 46.6819 19.2112 49.363 21.8923C52.044 24.5733 53.5522 28.2084 53.5565 32ZM39.2553 19.5581C36.7945 19.5581 34.389 20.2878 32.3429 21.6549C30.2969 23.0221 28.7022 24.9652 27.7605 27.2387C26.8188 29.5121 26.5724 32.0138 27.0525 34.4273C27.5325 36.8408 28.7175 39.0577 30.4575 40.7977C32.1976 42.5377 34.4145 43.7227 36.828 44.2028C39.2415 44.6829 41.7431 44.4365 44.0166 43.4948C46.29 42.5531 48.2332 40.9584 49.6003 38.9123C50.9674 36.8663 51.6971 34.4608 51.6971 32C51.6933 28.7014 50.3813 25.5389 48.0488 23.2064C45.7163 20.874 42.5539 19.5619 39.2553 19.5581Z" fill="#163020"/>
<path d="M4.02385 57.4469C4.12372 56.1965 4.61309 55.0089 5.42311 54.0512C6.23313 53.0935 7.32303 52.4138 8.53947 52.1078V51.9681C8.54156 50.4684 9.10852 49.0246 10.1274 47.9242C11.1463 46.8238 12.5423 46.1476 14.0374 46.0303C14.0852 45.8215 14.1436 45.6191 14.2127 45.4194C13.6323 41.0423 13.3226 36.6336 13.2851 32.2183V31.7816C13.2851 20.6137 15.9116 7.96624 16.1656 6.7704V1.35059C16.1656 1.10402 16.2635 0.867548 16.4379 0.693198C16.6122 0.518847 16.8487 0.420899 17.0953 0.420899H59.769C59.8911 0.420829 60.012 0.444828 60.1248 0.491525C60.2377 0.538221 60.3402 0.606699 60.4265 0.693042C60.5129 0.779385 60.5813 0.881901 60.628 0.994727C60.6747 1.10755 60.6987 1.22848 60.6987 1.35059V6.76934C60.9531 7.96784 63.5791 20.6142 63.5791 31.7816V32.2183C63.5791 43.3857 60.9531 56.0321 60.6987 57.2296V62.6483C60.6987 62.7704 60.6747 62.8914 60.628 63.0042C60.5813 63.117 60.5129 63.2195 60.4265 63.3059C60.3402 63.3922 60.2377 63.4607 60.1248 63.5074C60.012 63.5541 59.8911 63.5781 59.769 63.578H1.3506C1.22849 63.5781 1.10757 63.5541 0.99474 63.5074C0.881916 63.4607 0.7794 63.3922 0.693054 63.3059C0.606712 63.2195 0.538235 63.117 0.491539 63.0042C0.444843 62.8914 0.420845 62.7704 0.420914 62.6483C0.415661 61.5165 0.758507 60.4104 1.40299 59.48C2.04747 58.5496 2.96242 57.8398 4.02385 57.4469ZM58.8393 2.28027H18.0249V5.93899H58.8393V2.28027ZM61.7197 31.7816C61.7197 21.8563 59.6027 10.7096 59.0104 7.79837H17.8523C17.2626 10.7096 15.1429 21.8563 15.1429 31.7816V32.2183C15.1668 35.7867 15.3823 39.3512 15.7884 42.8965C16.6046 42.096 17.6191 41.5272 18.7278 41.2484C19.8365 40.9695 20.9994 40.9907 22.0972 41.3098C23.195 41.6289 24.1881 42.2343 24.9746 43.0639C25.7611 43.8936 26.3127 44.9176 26.5728 46.0308C28.0669 46.1499 29.4614 46.827 30.479 47.9276C31.4965 49.0281 32.0625 50.4714 32.0643 51.9702V52.1099C33.0703 52.3641 33.9933 52.8745 34.7435 53.5914C35.4937 54.3082 36.0455 55.2071 36.3451 56.2006H59.0125C59.6027 53.2893 61.7219 42.1426 61.7219 32.2173L61.7197 31.7816ZM58.8393 58.061H37.7651C38.383 58.4803 38.9092 59.0208 39.3117 59.6498C39.7142 60.2787 39.9845 60.983 40.1063 61.7197H58.8393V58.061ZM28.0077 61.7197C27.822 61.2538 27.5011 60.8543 27.0863 60.5725C26.6715 60.2907 26.1817 60.1396 25.6803 60.1387C25.4337 60.1387 25.1972 60.0408 25.0229 59.8664C24.8485 59.6921 24.7506 59.4556 24.7506 59.209C24.7506 58.9625 24.8485 58.726 25.0229 58.5516C25.1972 58.3773 25.4337 58.2793 25.6803 58.2793C26.6772 58.2809 27.6437 58.6227 28.4198 59.2483C29.1959 59.874 29.7352 60.7459 29.9483 61.7197H38.2093C38.0408 61.0631 37.6938 60.4659 37.2068 59.9944C36.7197 59.5228 36.1117 59.1953 35.4499 59.0481C35.2367 58.9996 35.0473 58.8776 34.9151 58.7034C34.7829 58.5292 34.7162 58.314 34.7269 58.0955L34.7333 57.993C34.7333 57.959 34.7386 57.9245 34.7386 57.8899C34.7337 56.8629 34.345 55.8749 33.6487 55.1199C32.9524 54.365 31.999 53.8977 30.9758 53.8099C30.8461 53.7995 30.7201 53.762 30.6059 53.6999C30.4916 53.6377 30.3917 53.5523 30.3125 53.4491C30.2334 53.3459 30.1768 53.2272 30.1463 53.1008C30.1159 52.9744 30.1123 52.8429 30.1358 52.715C30.1826 52.4698 30.2066 52.2209 30.2076 51.9713C30.2064 50.8847 29.7743 49.843 29.006 49.0747C28.2377 48.3065 27.196 47.8743 26.1095 47.8732C26.0468 47.8732 25.9852 47.878 25.9236 47.8822L25.8434 47.8876C25.6026 47.9026 25.3654 47.8234 25.1819 47.6668C24.9984 47.5102 24.883 47.2883 24.86 47.0482C24.7505 45.9165 24.2235 44.866 23.3817 44.1017C22.5399 43.3374 21.4437 42.914 20.3067 42.914C19.1697 42.914 18.0734 43.3374 17.2316 44.1017C16.3898 44.866 15.8628 45.9165 15.7533 47.0482C15.7307 47.2891 15.615 47.5116 15.4307 47.6684C15.2464 47.8252 15.0082 47.9038 14.7668 47.8876L14.6977 47.8828C14.6308 47.878 14.5639 47.8727 14.4959 47.8727C13.8939 47.8702 13.2989 48.0008 12.7534 48.2553C12.2079 48.5098 11.7255 48.8818 11.3407 49.3447C10.9559 49.8075 10.6782 50.3498 10.5276 50.9325C10.377 51.5153 10.3571 52.1242 10.4695 52.7156C10.4931 52.8434 10.4896 52.9748 10.4593 53.1013C10.4289 53.2277 10.3723 53.3464 10.2932 53.4496C10.2141 53.5528 10.1142 53.6382 9.99997 53.7004C9.88575 53.7626 9.75975 53.8001 9.63013 53.8105C8.60683 53.8982 7.65334 54.3655 6.95699 55.1204C6.26063 55.8754 5.87175 56.8634 5.86676 57.8905C5.86676 57.9245 5.86676 57.9574 5.87154 57.9909L5.87844 58.0971C5.88915 58.3155 5.8226 58.5306 5.69048 58.7048C5.55836 58.879 5.36911 59.0011 5.15594 59.0496C4.49419 59.1968 3.88611 59.5243 3.39907 59.9959C2.91204 60.4674 2.56508 61.0646 2.39663 61.7213L28.0077 61.7197Z" fill="#163020"/>
<path d="M55.1375 12.2905H47.4062C47.1597 12.2905 46.9232 12.1926 46.7488 12.0182C46.5745 11.8439 46.4765 11.6074 46.4765 11.3608C46.4765 11.1143 46.5745 10.8778 46.7488 10.7035C46.9232 10.5291 47.1597 10.4312 47.4062 10.4312H55.1375C55.3841 10.4312 55.6206 10.5291 55.7949 10.7035C55.9693 10.8778 56.0672 11.1143 56.0672 11.3608C56.0672 11.6074 55.9693 11.8439 55.7949 12.0182C55.6206 12.1926 55.3841 12.2905 55.1375 12.2905ZM43.6763 12.2905H41.5625C41.3159 12.2905 41.0794 12.1926 40.9051 12.0182C40.7307 11.8439 40.6328 11.6074 40.6328 11.3608C40.6328 11.1143 40.7307 10.8778 40.9051 10.7035C41.0794 10.5291 41.3159 10.4312 41.5625 10.4312H43.6763C43.9229 10.4312 44.1594 10.5291 44.3337 10.7035C44.5081 10.8778 44.606 11.1143 44.606 11.3608C44.606 11.6074 44.5081 11.8439 44.3337 12.0182C44.1594 12.1926 43.9229 12.2905 43.6763 12.2905Z" fill="#163020"/>
</svg>
