<svg width="22" height="22" viewBox="0 0 22 22" fill="none" xmlns="http://www.w3.org/2000/svg">
<path d="M8.03711 7.08118V6.00803V5.65031L8.40748 4.93488L9.14822 3.86173L9.51859 3.1463L10.2593 2.07315L10.6297 1L11.0001 1.35772L11.7408 2.07315L12.8519 3.1463L13.5927 4.93488V6.36575V6.72346" stroke="black" stroke-width="0.3"/>
<path d="M13.5925 6.72351V7.08123" stroke="black" stroke-width="0.3"/>
<path d="M6.47974 16.1637C6.47974 16.5406 6.67577 16.882 6.68003 17.2647C6.68343 17.5705 6.73004 17.8516 6.78636 18.1508C6.83687 18.4191 6.91987 18.6823 6.96439 18.9532C7.01595 19.2669 7.15684 19.5785 7.2636 19.8775C7.2975 19.9724 7.36394 20.158 7.44658 20.2214C7.57572 20.3204 7.71398 20.3757 7.86447 20.4411C7.97105 20.4874 8.08651 20.5138 8.19211 20.5605C8.26792 20.5941 8.33187 20.6362 8.4159 20.6513C8.59523 20.6833 8.77719 20.708 8.95495 20.7468C9.36861 20.8371 9.79827 20.9355 10.2235 20.9355C10.6736 20.9355 11.1133 21 11.5637 21C11.811 21 12.0582 21 12.3055 21C12.6109 21 12.9114 20.9347 13.2081 20.871C13.7583 20.7529 14.4049 20.5091 14.7362 20.0375C14.9924 19.6729 14.9776 19.2499 15.0082 18.8314C15.023 18.6301 15.0782 18.4414 15.1096 18.2439C15.1351 18.0839 15.1602 17.9049 15.2036 17.7495C15.3008 17.4017 15.3371 17.0142 15.3371 16.6533C15.3371 16.4812 15.2999 16.2571 15.3816 16.0992" stroke="black" stroke-width="0.5" stroke-linecap="round"/>
<path d="M5.7229 15.39C5.80338 15.4073 5.90672 15.5699 5.96276 15.6217C6.06899 15.7199 6.20595 15.7837 6.32378 15.8677C6.40404 15.9249 6.47372 16.0003 6.56858 16.0348C6.91088 16.1596 7.27216 16.2852 7.6368 16.3405C8.0784 16.4076 8.51389 16.5072 8.95478 16.577C9.24043 16.6222 9.5138 16.708 9.80293 16.7394C10.0796 16.7694 10.3513 16.8086 10.6301 16.8086C11.0439 16.8086 11.4546 16.8026 11.8677 16.7883C12.4732 16.7675 13.0883 16.7607 13.6851 16.6486C14.0468 16.5807 14.3869 16.448 14.7373 16.3465C14.9066 16.2974 15.083 16.248 15.2355 16.1638C15.2838 16.1372 15.3177 16.0778 15.3814 16.0778" stroke="black" stroke-width="0.5" stroke-linecap="round"/>
<path d="M15.27 16.0562C15.5008 16.0562 15.7394 15.9444 15.903 15.7864C16.0422 15.6519 16.0934 15.5203 16.0934 15.3302C16.0934 14.9725 16.1602 14.6318 16.1602 14.2722" stroke="black" stroke-width="0.5" stroke-linecap="round"/>
<path d="M5.65601 15.347C5.68219 15.1953 5.72277 15.0629 5.72277 14.9063C5.72277 14.7507 5.72277 14.5951 5.72277 14.4394C5.72277 14.2762 5.72277 14.113 5.72277 13.9498" stroke="black" stroke-width="0.5" stroke-linecap="round"/>
<path d="M5.74512 14.4012C5.75392 14.4395 5.83641 14.4928 5.86752 14.5182C6.0375 14.6571 6.20453 14.7831 6.40534 14.88C6.60774 14.9778 6.80943 15.0389 7.02847 15.089C7.2493 15.1395 7.46303 15.2219 7.6924 15.2383C7.88931 15.2524 8.12311 15.3067 8.30441 15.3804C8.51937 15.4678 8.79584 15.4973 9.02521 15.5511C9.31393 15.619 9.58554 15.6479 9.88449 15.6479C10.4495 15.6479 11.0145 15.6479 11.5796 15.6479C11.9011 15.6479 12.2233 15.6607 12.5427 15.6216C12.7458 15.5967 12.964 15.5189 13.1671 15.5189C13.399 15.5189 13.6173 15.4532 13.8458 15.4281C14.1403 15.3958 14.4203 15.3068 14.6952 15.2072C14.8898 15.1368 15.1561 15.096 15.327 14.9768C15.4525 14.8892 15.558 14.7794 15.6806 14.6926C15.8437 14.577 16.0719 14.411 16.1826 14.2507" stroke="black" stroke-width="0.5" stroke-linecap="round"/>
<path d="M5.74512 13.8209C5.88622 13.8209 5.99275 13.7214 6.07894 13.6263C6.27123 13.414 6.46805 13.2848 6.74905 13.1808C6.94538 13.1082 7.15627 13.0415 7.34498 12.9504C7.49503 12.8779 7.65138 12.8606 7.81357 12.8214C8.59135 12.6336 9.4172 12.5527 10.2183 12.5527" stroke="black" stroke-width="0.5" stroke-linecap="round"/>
<path d="M11.3535 12.5098C11.8378 12.5098 12.3106 12.4838 12.7778 12.6053C13.061 12.6789 13.333 12.7627 13.6223 12.8202C13.8923 12.8739 14.1628 12.9079 14.4321 12.9707C14.6626 13.0245 14.9003 13.0811 15.1245 13.1546C15.2624 13.1999 15.3704 13.2725 15.4966 13.3433C15.578 13.389 15.6543 13.4621 15.7426 13.4937C15.9725 13.576 16.2495 13.915 16.2495 14.1648" stroke="black" stroke-width="0.5" stroke-linecap="round"/>
<path d="M6.03467 14.4442C6.27149 13.9868 6.55965 13.52 7.15235 13.52C7.29044 13.52 7.40466 13.5276 7.53439 13.5833C7.63032 13.6244 7.75188 13.7164 7.85461 13.7301C7.93004 13.7402 7.95312 13.5594 8.00421 13.52C8.05698 13.4792 8.10141 13.4381 8.16617 13.4125C8.37043 13.3318 8.55363 13.2349 8.76705 13.1761C9.04351 13.0998 9.28167 13.1159 9.5064 13.2883C9.58802 13.3509 9.65092 13.4327 9.72895 13.4997C9.80306 13.5633 9.88152 13.6078 9.95644 13.6656C10.0673 13.7513 10.1952 13.5142 10.2408 13.4555" stroke="black" stroke-width="0.5" stroke-linecap="round"/>
<path d="M11.3755 13.2191C11.3873 13.1279 11.7655 13.4944 11.8095 13.5212C11.984 13.6277 12.1413 13.2535 12.2657 13.1713C12.4322 13.0613 12.6117 12.9398 12.8233 12.9194C13.0763 12.8949 13.4395 12.9112 13.6418 13.0674C13.7424 13.1452 13.8187 13.2495 13.8952 13.348C13.9791 13.456 14.0243 13.4508 14.1524 13.4555C14.2486 13.4591 14.3482 13.4985 14.4491 13.4985C14.5817 13.4985 14.7248 13.4955 14.8472 13.5546C14.9351 13.5971 15.0291 13.6741 15.097 13.7397C15.1874 13.8271 15.3128 13.8837 15.4036 13.9714C15.5427 14.1057 15.5189 14.3875 15.6039 14.5517" stroke="black" stroke-width="0.5" stroke-linecap="round"/>
<path d="M11.4424 14.7451C11.4035 14.4064 11.2581 14.0654 11.2421 13.7182C11.2349 13.5597 11.1976 13.406 11.1976 13.2453C11.1976 13.0741 11.1976 12.903 11.1976 12.7318C11.1976 12.6087 11.1933 12.4847 11.1989 12.3616C11.2028 12.2737 11.2383 12.1936 11.2421 12.1061C11.2512 11.8995 11.35 11.7227 11.4202 11.5329C11.5136 11.2804 11.6973 11.0501 11.8208 10.8116" stroke="black" stroke-width="0.7" stroke-linecap="round"/>
<path d="M10.53 14.4872C10.5904 14.4613 10.6417 14.2101 10.6636 14.1433C10.6864 14.0734 10.6821 14.0003 10.6994 13.9296C10.7245 13.8273 10.7903 13.7385 10.828 13.6406C11.0305 13.114 11.1309 12.5584 11.1309 11.9963C11.1309 11.7188 11.1014 11.4686 11.0369 11.1986C11.0054 11.0664 10.9871 10.8174 10.8416 10.7472" stroke="black" stroke-width="0.7" stroke-linecap="round"/>
<path d="M10.2405 14.3368C10.3749 14.2848 10.4011 13.9115 10.4235 13.7994C10.4684 13.575 10.5076 13.3716 10.5076 13.1438C10.5076 12.763 10.5135 12.3818 10.5076 12.001C10.5047 11.8134 10.4349 11.6735 10.379 11.4995C10.3408 11.3805 10.3047 11.2731 10.2195 11.1771C10.1777 11.13 10.1596 11.0646 10.1169 11.0159C10.0499 10.9394 9.94934 10.8456 9.92896 10.7472" stroke="black" stroke-width="0.7" stroke-linecap="round"/>
<path d="M10.0942 10.5143C10.1688 10.5143 10.2274 10.5645 10.2991 10.5823C10.4781 10.6269 10.6638 10.6593 10.8492 10.6593C11.0266 10.6593 11.1989 10.6541 11.3748 10.6311C11.4456 10.6219 11.5139 10.6029 11.5857 10.6029C11.6134 10.6029 11.6393 10.6062 11.6627 10.5949" stroke="black" stroke-width="0.2" stroke-linecap="round"/>
<path d="M10.2593 10.3006L9.88889 10.6583L9.51852 11.016L8.40741 11.3737L6.92593 11.016L5.81481 10.6583L4.33333 9.94287L3.59259 9.22743L2.85185 8.512L2.11111 7.79657L1.74074 7.08113L1.37037 6.3657L1 5.65027L2.11111 6.00799L5.44444 6.3657H5.81481H6.18518L8.40741 7.43885L8.77778 7.79657L9.14815 8.15428L9.88889 8.86972L10.2593 9.58515V9.94287V10.3006Z" stroke="black" stroke-width="0.3"/>
<path d="M11.3704 10.3006L11.7556 10.6583L12.1407 11.016L13.2963 11.3737L14.837 11.016L15.9926 10.6583L17.5333 9.94287L18.3037 9.22743L19.0741 8.512L19.8444 7.79657L20.2296 7.08113L20.6148 6.3657L21 5.65027L19.8444 6.00799L16.3778 6.3657H15.9926H15.6074L13.2963 7.43885L12.9111 7.79657L12.5259 8.15428L11.7556 8.86972L11.3704 9.58515V9.94287V10.3006Z" stroke="black" stroke-width="0.3"/>
</svg>  