<svg width="68" height="48" viewBox="0 0 68 48" fill="none" xmlns="http://www.w3.org/2000/svg">
<path d="M1.30742 43.3439C1.0856 43.3435 0.867534 43.2867 0.673682 43.1789C0.479829 43.0711 0.316553 42.9158 0.199182 42.7276C0.081811 42.5394 0.0141945 42.3244 0.00268046 42.1029C-0.00883357 41.8814 0.0361326 41.6606 0.133358 41.4612C0.543482 40.6197 1.03011 39.8048 1.57836 39.0313C1.77956 38.7483 2.08491 38.5569 2.42723 38.4991C2.76955 38.4414 3.12081 38.5219 3.40373 38.7231C3.68665 38.9243 3.87806 39.2297 3.93584 39.572C3.99363 39.9143 3.91306 40.2656 3.71186 40.5485C3.24722 41.2009 2.83679 41.8903 2.48467 42.6098C2.377 42.8301 2.2095 43.0157 2.00131 43.1454C1.79313 43.275 1.55267 43.3445 1.30742 43.3439ZM7.52304 36.8542C7.88429 36.6162 8.26892 36.3867 8.67586 36.1668C8.82728 36.0856 8.96121 35.9754 9.06999 35.8424C9.17877 35.7094 9.26026 35.5563 9.3098 35.3918C9.35935 35.2272 9.37596 35.0546 9.3587 34.8836C9.34145 34.7127 9.29065 34.5469 9.20923 34.3956C9.04447 34.0903 8.76546 33.8628 8.43328 33.7628C8.10111 33.6628 7.74286 33.6986 7.43698 33.8622C6.96098 34.1172 6.51261 34.3881 6.08761 34.6665C5.81219 34.8629 5.6235 35.1584 5.56112 35.4908C5.49874 35.8233 5.5675 36.1671 5.75299 36.45C5.93848 36.7329 6.22629 36.933 6.55608 37.0083C6.88587 37.0837 7.23309 37.0285 7.52304 36.8542ZM13.7886 34.4753C14.5887 34.3552 15.4015 34.2946 16.2037 34.2914C16.9262 34.2883 17.5105 33.7007 17.5074 32.9782C17.5042 32.2557 17.008 31.6819 16.1962 31.6745C15.2655 31.6777 14.3262 31.7489 13.4008 31.8891C13.0579 31.9406 12.7494 32.1261 12.5433 32.405C12.3371 32.6838 12.2502 33.0332 12.3016 33.3761C12.3531 33.719 12.5386 34.0275 12.8175 34.2336C13.0963 34.4398 13.4457 34.5267 13.7886 34.4753ZM7.35517 46.5739C7.50604 46.2233 7.68136 45.8653 7.87792 45.5008C7.96013 45.3498 8.01174 45.1841 8.02979 45.0131C8.04784 44.8422 8.03199 44.6693 7.98313 44.5045C7.93428 44.3397 7.85338 44.1861 7.74508 44.0526C7.63677 43.9191 7.50319 43.8082 7.35198 43.7264C7.20093 43.6443 7.03515 43.5927 6.86414 43.5747C6.69313 43.5568 6.52025 43.5727 6.35542 43.6217C6.19058 43.6706 6.03703 43.7516 5.90355 43.86C5.77008 43.9685 5.65932 44.1021 5.57761 44.2534C5.34386 44.6848 5.13667 45.1141 4.95604 45.5263C4.81712 45.8445 4.81027 46.2048 4.937 46.528C5.06372 46.8512 5.31365 47.1108 5.63179 47.2497C5.94994 47.3886 6.31024 47.3955 6.63343 47.2687C6.95663 47.142 7.21625 46.8921 7.35517 46.5739ZM10.8646 41.9383L11.127 41.747C11.391 41.5378 11.5643 41.2349 11.6108 40.9013C11.6574 40.5677 11.5736 40.229 11.377 39.9555C11.1804 39.682 10.8859 39.4948 10.5549 39.4327C10.2238 39.3706 9.88156 39.4384 9.59917 39.622L9.29636 39.843C9.01851 40.051 8.83465 40.3608 8.78524 40.7043C8.73582 41.0478 8.82489 41.3969 9.03286 41.6748C9.24082 41.9526 9.55064 42.1365 9.89416 42.1859C10.2377 42.2353 10.5868 42.1462 10.8646 41.9383ZM15.3802 40.0938C15.7808 40.0449 16.1654 40.0226 16.5288 40.0194C16.7006 40.0189 16.8705 39.9846 17.029 39.9184C17.1875 39.8522 17.3314 39.7555 17.4526 39.6337C17.5737 39.5119 17.6696 39.3674 17.7349 39.2085C17.8002 39.0497 17.8335 38.8795 17.833 38.7077C17.8325 38.536 17.7982 38.366 17.732 38.2075C17.6658 38.049 17.5691 37.9051 17.4473 37.784C17.3255 37.6629 17.181 37.5669 17.0222 37.5016C16.8633 37.4364 16.6931 37.403 16.5214 37.4035H16.5139C16.0528 37.4056 15.5662 37.4343 15.0583 37.4981C14.7141 37.5406 14.4009 37.7182 14.1876 37.9916C13.9743 38.2651 13.8783 38.6121 13.9209 38.9563C13.9634 39.3006 14.141 39.6138 14.4145 39.8271C14.6879 40.0404 15.035 40.1363 15.3792 40.0938H15.3802ZM65.4155 20.5374C68.944 15.8518 68.8707 8.71919 65.1286 4.25563C63.1949 1.95001 60.5811 0.664383 57.7655 0.643133C54.9286 0.632508 52.2182 1.89688 50.1888 4.24501C50.0464 4.41076 49.9168 4.58501 49.785 4.75819L48.8033 3.76794C48.242 3.20653 47.4912 2.87496 46.6982 2.83821C45.9051 2.80146 45.1269 3.06217 44.5161 3.56926L29.9779 15.7689C29.3723 16.282 28.9802 17.0029 28.8786 17.7901C28.777 18.5773 28.9731 19.3741 29.4286 20.0242L41.4912 37.0794L28.3937 37.1751L28.3342 36.3463L28.1695 34.0194L33.8645 33.2321C34.587 33.1365 35.0875 32.4778 34.9919 31.7553C34.8856 31.0434 34.2269 30.544 33.515 30.6396L27.0762 31.53L22.5149 28.5667C21.8477 28.1279 21.0062 28.1066 20.3177 28.5136C19.6292 28.9205 19.2371 29.6653 19.2945 30.4633L20.1254 41.9627C20.1817 42.7628 20.6779 43.4449 21.4174 43.7488C21.7762 43.8975 22.1696 43.9421 22.5526 43.8774C22.9356 43.8128 23.2926 43.6415 23.5827 43.3833L27.6829 39.7856L43.3325 39.6826L43.6767 40.1692C44.1423 40.8244 44.7575 41.359 45.4711 41.7288C46.1848 42.0986 46.9764 42.2928 47.7801 42.2953C48.9552 42.2953 50.107 41.8809 51.0175 41.1169L65.8267 28.6921C66.3593 28.2448 66.7935 27.6919 67.1019 27.0685C67.4102 26.445 67.586 25.7644 67.6181 25.0695C67.6503 24.3747 67.5381 23.6808 67.2886 23.0315C67.0392 22.3822 66.6579 21.7916 66.1688 21.2971L65.4155 20.5374ZM22.6584 40.7143L21.9815 31.3398L25.5165 33.6369L25.8267 37.9348L22.6584 40.7143ZM31.5632 18.5123C31.4841 18.3992 31.4501 18.2608 31.4678 18.124C31.4855 17.9872 31.5536 17.862 31.6588 17.7728L46.198 5.57419C46.303 5.48314 46.439 5.4359 46.5778 5.44223C46.7166 5.44856 46.8477 5.50797 46.9439 5.60819L48.0553 6.73019L48.0532 6.73126L47.745 6.98626L32.4663 19.7894L31.5632 18.5123ZM64.1469 26.6903L49.3377 39.1152C49.0829 39.3317 48.7854 39.492 48.4644 39.5857C48.1435 39.6795 47.8064 39.7045 47.4752 39.6592C47.1436 39.6184 46.8243 39.5082 46.5382 39.3357C46.252 39.1633 46.0054 38.9324 45.8145 38.6583L33.9793 21.9303L49.8977 8.59169L64.3094 23.1394C64.7907 23.625 65.0383 24.2678 65.0075 24.9499C64.9933 25.284 64.9094 25.6114 64.7612 25.9111C64.613 26.2108 64.4037 26.4763 64.1469 26.6903ZM63.5582 18.6621L51.6444 6.63457C51.807 6.39969 51.9807 6.17276 52.165 5.95457C53.6738 4.21207 55.6394 3.25582 57.7007 3.25582H57.7432C59.7832 3.26644 61.685 4.22269 63.1311 5.93332C66.0445 9.40238 66.1645 14.9093 63.5582 18.6621Z" fill="#EEF0E5"/>
</svg>
